<?xml version="1.0" encoding="UTF-8" standalone="no"?>
<svg
   xmlns:dc="http://purl.org/dc/elements/1.1/"
   xmlns:cc="http://creativecommons.org/ns#"
   xmlns:rdf="http://www.w3.org/1999/02/22-rdf-syntax-ns#"
   xmlns:svg="http://www.w3.org/2000/svg"
   xmlns="http://www.w3.org/2000/svg"
   viewBox="0 0 1508.84 287.94666"
   height="287.94666"
   width="1508.84"
   xml:space="preserve"
   id="svg2"
   version="1.1"><metadata
     id="metadata8"><rdf:RDF><cc:Work
         rdf:about=""><dc:format>image/svg+xml</dc:format><dc:type
           rdf:resource="http://purl.org/dc/dcmitype/StillImage" /></cc:Work></rdf:RDF></metadata><defs
     id="defs6" /><g
     transform="matrix(1.3333333,0,0,-1.3333333,0,287.94667)"
     id="g10"><g
       transform="scale(0.1)"
       id="g12"><path
         id="path14"
         style="fill:#5a8176;fill-opacity:1;fill-rule:nonzero;stroke:none"
         d="m 663.109,2113.09 c -339.996,0 -616.5934,-276.61 -616.5934,-616.62 V 663.109 c 0,-340 276.5974,-616.5973 616.5934,-616.5973 h 833.481 c 339.98,0 616.55,276.5973 616.55,616.5973 v 833.361 c 0,340.01 -276.57,616.62 -616.55,616.62 z M 1496.59,0 H 663.109 C 297.473,0 0,297.488 0,663.109 v 833.361 c 0,365.67 297.473,663.14 663.109,663.14 h 833.481 c 365.63,0 663.07,-297.47 663.07,-663.14 V 663.109 C 2159.66,297.488 1862.22,0 1496.59,0" /><path
         id="path16"
         style="fill:#5a8176;fill-opacity:1;fill-rule:nonzero;stroke:none"
         d="m 1079.8,444.051 c -270.859,0 -491.214,220.359 -491.214,491.238 h 52.328 c 0,-242.008 196.891,-438.898 438.886,-438.898 242.02,0 438.93,196.89 438.93,438.898 h 52.33 c 0,-270.879 -220.39,-491.238 -491.26,-491.238" /><path
         id="path18"
         style="fill:#5a8176;fill-opacity:1;fill-rule:nonzero;stroke:none"
         d="m 2557.66,1580.83 312.4,456.9 v 2.52 h -285.67 v 60.97 h 380.07 v -44.27 l -310.74,-455.23 v -2.51 h 314.91 v -60.98 h -410.97 v 42.6" /><path
         id="path20"
         style="fill:#5a8176;fill-opacity:1;fill-rule:nonzero;stroke:none"
         d="m 3400.37,1772.12 -55.13,162.04 c -12.52,36.76 -20.88,70.16 -29.23,102.75 h -1.67 c -8.35,-33.41 -17.54,-67.67 -28.41,-101.91 l -55.13,-162.88 z m -184.6,-56.81 -58.47,-177.08 h -75.18 l 191.28,562.99 h 87.71 l 192.12,-562.99 h -77.68 l -60.14,177.08 h -199.64" /><path
         id="path22"
         style="fill:#5a8176;fill-opacity:1;fill-rule:nonzero;stroke:none"
         d="m 3739.97,2101.22 v -235.56 h 272.31 v 235.56 h 73.5 v -562.99 h -73.5 v 263.96 h -272.31 v -263.96 h -72.67 v 562.99 h 72.67" /><path
         id="path24"
         style="fill:#5a8176;fill-opacity:1;fill-rule:nonzero;stroke:none"
         d="m 4239.45,1538.23 v 562.99 h 79.35 l 180.43,-284.83 c 41.77,-66 74.34,-125.3 101.07,-182.93 l 1.66,0.84 c -6.68,75.16 -8.35,143.67 -8.35,231.36 v 235.56 h 68.5 v -562.99 h -73.51 l -178.75,285.68 c -39.26,62.63 -76.85,126.95 -105.25,187.93 l -2.5,-0.82 c 4.17,-71.02 5.84,-138.68 5.84,-232.22 v -240.57 h -68.49" /><path
         id="path26"
         style="fill:#5a8176;fill-opacity:1;fill-rule:nonzero;stroke:none"
         d="m 5104.7,1772.12 -55.13,162.04 c -12.53,36.76 -20.89,70.16 -29.24,102.75 h -1.67 c -8.35,-33.41 -17.54,-67.67 -28.4,-101.91 l -55.13,-162.88 z m -184.6,-56.81 -58.47,-177.08 h -75.18 l 191.28,562.99 h 87.7 l 192.12,-562.99 h -77.68 l -60.14,177.08 H 4920.1" /><path
         id="path28"
         style="fill:#5a8176;fill-opacity:1;fill-rule:nonzero;stroke:none"
         d="m 5454.7,1837.27 h 74.34 c 77.69,0 126.97,42.59 126.97,106.91 0,72.68 -52.62,104.41 -129.47,105.25 -35.08,0 -60.15,-3.34 -71.84,-6.68 z m -72.67,256.43 c 36.75,7.52 89.38,11.69 139.5,11.69 77.68,0 127.8,-14.2 162.88,-45.94 28.39,-25.06 44.27,-63.47 44.27,-106.91 0,-74.34 -46.78,-123.62 -106.08,-143.67 v -2.51 c 43.43,-15.03 69.33,-55.13 82.69,-113.59 18.38,-78.53 31.75,-132.83 43.43,-154.54 h -75.17 c -9.19,15.87 -21.71,64.32 -37.59,134.48 -16.7,77.68 -46.78,106.92 -112.76,109.42 h -68.5 v -243.9 h -72.67 v 555.47" /><path
         id="path30"
         style="fill:#5a8176;fill-opacity:1;fill-rule:nonzero;stroke:none"
         d="m 7010.07,1823.07 c 15.87,-4.18 35.91,-5.85 60.14,-5.85 87.7,0 141.16,42.6 141.16,120.28 0,74.34 -52.62,110.27 -132.81,110.27 -31.74,0 -55.97,-2.52 -68.49,-5.86 z m -72.68,271.46 c 35.08,5.85 81.03,10.86 139.49,10.86 71.84,0 124.47,-16.7 157.89,-46.76 30.89,-26.74 49.26,-67.67 49.26,-117.79 0,-50.95 -15.03,-91.04 -43.42,-120.27 -38.42,-40.94 -101.08,-61.82 -172.07,-61.82 -21.72,0 -41.77,0.84 -58.47,5.01 v -225.53 h -72.68 v 556.3" /><path
         id="path32"
         style="fill:#5a8176;fill-opacity:1;fill-rule:nonzero;stroke:none"
         d="M 6568.13,2039.41 H 6396.9 v 61.81 h 416.81 v -61.81 h -172.08 v -501.18 h -73.5 v 501.18" /><path
         id="path34"
         style="fill:#5a8176;fill-opacity:1;fill-rule:nonzero;stroke:none"
         d="m 7478.6,1837.27 h 74.34 c 77.68,0 126.96,42.59 126.96,106.91 0,72.68 -52.61,104.41 -129.46,105.25 -35.08,0 -60.16,-3.34 -71.84,-6.68 z m -72.67,256.43 c 36.75,7.52 89.37,11.69 139.49,11.69 77.69,0 127.81,-14.2 162.89,-45.94 28.39,-25.06 44.26,-63.47 44.26,-106.91 0,-74.34 -46.77,-123.62 -106.08,-143.67 v -2.51 c 43.44,-15.03 69.34,-55.13 82.7,-113.59 18.38,-78.53 31.74,-132.83 43.44,-154.54 h -75.18 c -9.2,15.87 -21.72,64.32 -37.6,134.48 -16.7,77.68 -46.77,106.92 -112.75,109.42 h -68.5 v -243.9 h -72.67 v 555.47" /><path
         id="path36"
         style="fill:#5a8176;fill-opacity:1;fill-rule:nonzero;stroke:none"
         d="m 8187.9,1772.12 -55.14,162.04 c -12.52,36.76 -20.88,70.16 -29.23,102.75 h -1.66 c -8.35,-33.41 -17.54,-67.67 -28.4,-101.91 l -55.14,-162.88 z m -184.6,-56.81 -58.47,-177.08 h -75.17 l 191.27,562.99 h 87.71 l 192.11,-562.99 h -77.67 l -60.14,177.08 H 8003.3" /><path
         id="path38"
         style="fill:#5a8176;fill-opacity:1;fill-rule:nonzero;stroke:none"
         d="m 9053.59,2101.22 v -562.99 h -72.66 v 562.99 h 72.66" /><path
         id="path40"
         style="fill:#5a8176;fill-opacity:1;fill-rule:nonzero;stroke:none"
         d="m 9190.01,1626.78 c 32.58,-20.05 80.2,-36.76 130.31,-36.76 74.34,0 117.78,39.26 117.78,96.05 0,52.63 -30.07,82.7 -106.09,111.94 -91.88,32.58 -148.68,80.19 -148.68,159.54 0,87.7 72.68,152.86 182.1,152.86 57.63,0 99.4,-13.37 124.45,-27.56 l -20.05,-59.3 c -18.37,10 -55.95,26.72 -106.91,26.72 -76.85,0 -106.08,-45.95 -106.08,-84.37 0,-52.62 34.24,-78.52 111.93,-108.6 95.21,-36.73 143.67,-82.69 143.67,-165.37 0,-86.87 -64.31,-162.05 -197.14,-162.05 -54.27,0 -113.59,15.87 -143.67,35.91 l 18.38,60.99" /><path
         id="path42"
         style="fill:#5a8176;fill-opacity:1;fill-rule:nonzero;stroke:none"
         d="m 10492.7,1772.14 -55.1,162.04 c -12.5,36.76 -20.9,70.16 -29.2,102.75 h -1.7 c -8.4,-33.41 -17.6,-67.67 -28.4,-101.91 l -55.2,-162.88 z m -184.6,-56.81 -58.5,-177.08 h -75.1 l 191.2,562.99 h 87.8 l 192.1,-562.99 h -77.7 l -60.1,177.08 h -199.7" /><path
         id="path44"
         style="fill:#5a8176;fill-opacity:1;fill-rule:nonzero;stroke:none"
         d="m 11231.1,1785.49 c -4.2,78.53 -9.2,172.91 -8.4,243.08 h -2.5 c -19.2,-65.99 -42.6,-136.16 -71,-213.84 l -99.4,-273.14 h -55.1 l -91,268.14 c -26.8,79.34 -49.3,152.01 -65.2,218.84 h -1.7 c -1.6,-70.17 -5.8,-164.55 -10.8,-248.92 l -15.1,-241.4 h -69.3 l 39.3,562.99 h 92.7 l 96,-272.3 c 23.4,-69.33 42.6,-131.15 56.8,-189.62 h 2.6 c 14.2,56.79 34.2,118.61 59.3,189.62 l 100.2,272.3 h 92.7 l 35.1,-562.99 h -71 l -14.2,247.24" /><path
         id="path46"
         style="fill:#5a8176;fill-opacity:1;fill-rule:nonzero;stroke:none"
         d="m 2878.04,47 -312.79,1232.88 h 168.28 l 146.34,-623.759 c 36.58,-153.652 69.51,-307.301 91.45,-426.199 h 3.67 c 20.12,122.558 58.53,268.887 100.6,428.027 l 164.63,621.931 h 166.45 l 150,-625.591 c 34.75,-146.328 67.67,-292.66 85.97,-422.539 h 3.64 c 25.62,135.371 60.38,272.551 98.78,426.199 l 162.8,621.931 h 162.8 L 3721.29,47 h -166.46 l -155.48,642.039 c -38.41,157.32 -64.02,278.039 -80.48,402.431 h -3.65 C 3293.26,968.91 3265.83,848.18 3220.09,689.039 L 3044.49,47 h -166.45" /><path
         id="path48"
         style="fill:#5a8176;fill-opacity:1;fill-rule:nonzero;stroke:none"
         d="M 4984.18,625.031 H 4504.93 V 180.539 h 534.11 V 47 h -693.25 v 1232.88 h 665.82 V 1146.34 H 4504.93 V 756.719 h 479.25 V 625.031" /><path
         id="path50"
         style="fill:#5a8176;fill-opacity:1;fill-rule:nonzero;stroke:none"
         d="M 5526.35,1279.88 V 47 H 5367.2 v 1232.88 h 159.15" /><path
         id="path52"
         style="fill:#5a8176;fill-opacity:1;fill-rule:nonzero;stroke:none"
         d="m 5881.94,47 v 1232.88 h 173.77 l 395.11,-623.759 c 91.46,-144.512 162.8,-274.383 221.33,-400.582 l 3.65,1.82 c -14.62,164.629 -18.28,314.61 -18.28,506.68 V 1279.88 H 6807.5 V 47 H 6646.54 L 6255.1,672.59 c -85.97,137.191 -168.28,278.031 -230.48,411.55 l -5.49,-1.81 c 9.15,-155.49 12.81,-303.65 12.81,-508.521 V 47 h -150" /><path
         id="path54"
         style="fill:#5a8176;fill-opacity:1;fill-rule:nonzero;stroke:none"
         d="m 7320.05,167.738 c 31.09,-5.488 76.82,-7.328 133.52,-7.328 164.63,0 316.45,60.371 316.45,239.629 0,168.27 -144.5,237.801 -318.27,237.801 h -131.7 z m 0,590.821 h 144.5 c 168.29,0 267.06,87.8 267.06,206.691 0,144.51 -109.74,201.21 -270.71,201.21 -73.18,0 -115.25,-5.48 -140.85,-10.98 z m -159.14,504.851 c 69.51,14.63 179.26,25.61 290.84,25.61 159.14,0 261.57,-27.45 338.4,-89.63 64.02,-47.56 102.44,-120.73 102.44,-217.679 0,-118.902 -78.67,-223.152 -208.54,-270.711 v -3.66 c 117.07,-29.262 254.26,-126.219 254.26,-309.141 0,-106.078 -42.07,-186.558 -104.26,-246.929 -85.97,-78.6489 -225,-115.2309 -426.21,-115.2309 -109.74,0 -193.88,7.3125 -246.93,14.6328 V 1263.41" /><path
         id="path56"
         style="fill:#5a8176;fill-opacity:1;fill-rule:nonzero;stroke:none"
         d="M 8877.17,625.031 H 8397.91 V 180.539 h 534.12 V 47 h -693.26 v 1232.88 h 665.82 V 1146.34 H 8397.91 V 756.719 h 479.26 V 625.031" /><path
         id="path58"
         style="fill:#5a8176;fill-opacity:1;fill-rule:nonzero;stroke:none"
         d="m 9419.16,701.852 h 162.8 c 170.1,0 278.03,93.289 278.03,234.136 0,159.132 -115.23,228.652 -283.53,230.472 -76.82,0 -131.7,-7.32 -157.3,-14.63 z m -159.14,561.558 c 80.48,16.47 195.71,25.61 305.48,25.61 170.11,0 279.85,-31.1 356.68,-100.61 62.19,-54.87 96.92,-139.01 96.92,-234.14 0,-162.79 -102.41,-270.7 -232.28,-314.622 v -5.48 c 95.11,-32.918 151.82,-120.719 181.1,-248.77 C 10008.2,213.461 10037.4,94.5703 10063,47 h -164.59 c -20.14,34.7617 -47.57,140.852 -82.33,294.5 -36.58,170.109 -102.44,234.141 -246.93,239.621 H 9419.16 V 47 h -159.14 v 1216.41" /><path
         id="path60"
         style="fill:#5a8176;fill-opacity:1;fill-rule:nonzero;stroke:none"
         d="m 11316.3,101.879 c -71.4,-25.5977 -212.2,-67.6798 -378.7,-67.6798 -186.5,0 -340.2,47.5625 -460.9,162.7888 -106.1,102.442 -172,267.063 -172,459.133 1.9,367.669 254.3,636.559 667.7,636.559 142.7,0 254.3,-31.11 307.3,-56.71 l -38.4,-129.87 c -65.9,29.26 -148.2,53.04 -272.6,53.04 -299.9,0 -495.7,-186.57 -495.7,-495.699 0,-312.793 188.4,-497.543 475.6,-497.543 104.3,0 175.6,14.641 212.2,32.93 V 566.5 h -250.6 v 128.039 h 406.1 v -592.66" /><path
         id="path62"
         style="fill:#5a8176;fill-opacity:1;fill-rule:nonzero;stroke:none"
         d="m 5862.27,1580.83 312.4,456.9 v 2.52 H 5889 v 60.97 h 380.07 v -44.27 l -310.74,-455.23 v -2.51 h 314.91 v -60.98 h -410.97 v 42.6" /><path
         id="path64"
         style="fill:#5a8176;fill-opacity:1;fill-rule:nonzero;stroke:none"
         d="m 8777.37,1538.75 -72.54,124.22 c -29.18,47.54 -46.68,78.39 -64.19,110.9 h -1.67 c -15.84,-32.51 -32.51,-62.53 -60.85,-111.73 l -67.54,-123.39 h -83.38 l 171.76,284.32 -165.09,277.63 h 84.21 l 74.21,-131.74 c 20.84,-36.67 36.68,-65.02 51.68,-95.03 h 2.5 c 15.84,33.34 30.02,59.2 50.86,95.03 l 75.88,131.74 h 84.21 l -170.93,-273.47 175.1,-288.48 h -84.22" /></g></g></svg>