<?xml version="1.0" encoding="utf-8"?>
<svg xmlns="http://www.w3.org/2000/svg" viewBox="0 0 500 500">
  <g id="svg2" transform="matrix(1, 0, 0, 1, 479.8255, 67.611771)">
    <g transform="matrix(1.333333, 0, 0, -1.333333, -403.27478, 317.910706)" id="g10">
      <g transform="scale(0.1)" id="g12">
        <path id="path14" style="fill:#5a8176;fill-opacity:1;fill-rule:nonzero;stroke:none" d="M 953.458 2059.93 C 613.462 2059.93 336.865 1783.32 336.865 1443.31 L 336.865 609.947 C 336.865 269.947 613.462 -6.651 953.458 -6.651 L 1786.94 -6.651 C 2126.92 -6.651 2403.49 269.947 2403.49 609.947 L 2403.49 1443.31 C 2403.49 1783.32 2126.92 2059.93 1786.94 2059.93 L 953.458 2059.93 Z M 1786.94 -53.162 L 953.458 -53.162 C 587.822 -53.162 290.349 244.326 290.349 609.947 L 290.349 1443.31 C 290.349 1808.98 587.822 2106.45 953.458 2106.45 L 1786.94 2106.45 C 2152.57 2106.45 2450.01 1808.98 2450.01 1443.31 L 2450.01 609.947 C 2450.01 244.326 2152.57 -53.162 1786.94 -53.162"/>
        <path id="path16" style="fill:#5a8176;fill-opacity:1;fill-rule:nonzero;stroke:none" d="M 1370.15 390.889 C 1099.29 390.889 878.935 611.248 878.935 882.127 L 931.263 882.127 C 931.263 640.119 1128.15 443.229 1370.15 443.229 C 1612.17 443.229 1809.08 640.119 1809.08 882.127 L 1861.41 882.127 C 1861.41 611.248 1641.02 390.889 1370.15 390.889"/>
        <path id="path30" style="fill:#5a8176;fill-opacity:1;fill-rule:nonzero;stroke:none" d="m 7010.07,1823.07 c 15.87,-4.18 35.91,-5.85 60.14,-5.85 87.7,0 141.16,42.6 141.16,120.28 0,74.34 -52.62,110.27 -132.81,110.27 -31.74,0 -55.97,-2.52 -68.49,-5.86 z m -72.68,271.46 c 35.08,5.85 81.03,10.86 139.49,10.86 71.84,0 124.47,-16.7 157.89,-46.76 30.89,-26.74 49.26,-67.67 49.26,-117.79 0,-50.95 -15.03,-91.04 -43.42,-120.27 -38.42,-40.94 -101.08,-61.82 -172.07,-61.82 -21.72,0 -41.77,0.84 -58.47,5.01 v -225.53 h -72.68 v 556.3"/>
        <path id="path34" style="fill:#5a8176;fill-opacity:1;fill-rule:nonzero;stroke:none" d="m 7478.6,1837.27 h 74.34 c 77.68,0 126.96,42.59 126.96,106.91 0,72.68 -52.61,104.41 -129.46,105.25 -35.08,0 -60.16,-3.34 -71.84,-6.68 z m -72.67,256.43 c 36.75,7.52 89.37,11.69 139.49,11.69 77.69,0 127.81,-14.2 162.89,-45.94 28.39,-25.06 44.26,-63.47 44.26,-106.91 0,-74.34 -46.77,-123.62 -106.08,-143.67 v -2.51 c 43.44,-15.03 69.34,-55.13 82.7,-113.59 18.38,-78.53 31.74,-132.83 43.44,-154.54 h -75.18 c -9.2,15.87 -21.72,64.32 -37.6,134.48 -16.7,77.68 -46.77,106.92 -112.75,109.42 h -68.5 v -243.9 h -72.67 v 555.47"/>
        <path id="path36" style="fill:#5a8176;fill-opacity:1;fill-rule:nonzero;stroke:none" d="m 8187.9,1772.12 -55.14,162.04 c -12.52,36.76 -20.88,70.16 -29.23,102.75 h -1.66 c -8.35,-33.41 -17.54,-67.67 -28.4,-101.91 l -55.14,-162.88 z m -184.6,-56.81 -58.47,-177.08 h -75.17 l 191.27,562.99 h 87.71 l 192.11,-562.99 h -77.67 l -60.14,177.08 H 8003.3"/>
        <path id="path38" style="fill:#5a8176;fill-opacity:1;fill-rule:nonzero;stroke:none" d="m 9053.59,2101.22 v -562.99 h -72.66 v 562.99 h 72.66"/>
        <path id="path40" style="fill:#5a8176;fill-opacity:1;fill-rule:nonzero;stroke:none" d="m 9190.01,1626.78 c 32.58,-20.05 80.2,-36.76 130.31,-36.76 74.34,0 117.78,39.26 117.78,96.05 0,52.63 -30.07,82.7 -106.09,111.94 -91.88,32.58 -148.68,80.19 -148.68,159.54 0,87.7 72.68,152.86 182.1,152.86 57.63,0 99.4,-13.37 124.45,-27.56 l -20.05,-59.3 c -18.37,10 -55.95,26.72 -106.91,26.72 -76.85,0 -106.08,-45.95 -106.08,-84.37 0,-52.62 34.24,-78.52 111.93,-108.6 95.21,-36.73 143.67,-82.69 143.67,-165.37 0,-86.87 -64.31,-162.05 -197.14,-162.05 -54.27,0 -113.59,15.87 -143.67,35.91 l 18.38,60.99"/>
        <path id="path42" style="fill:#5a8176;fill-opacity:1;fill-rule:nonzero;stroke:none" d="m 10492.7,1772.14 -55.1,162.04 c -12.5,36.76 -20.9,70.16 -29.2,102.75 h -1.7 c -8.4,-33.41 -17.6,-67.67 -28.4,-101.91 l -55.2,-162.88 z m -184.6,-56.81 -58.5,-177.08 h -75.1 l 191.2,562.99 h 87.8 l 192.1,-562.99 h -77.7 l -60.1,177.08 h -199.7"/>
        <path id="path44" style="fill:#5a8176;fill-opacity:1;fill-rule:nonzero;stroke:none" d="m 11231.1,1785.49 c -4.2,78.53 -9.2,172.91 -8.4,243.08 h -2.5 c -19.2,-65.99 -42.6,-136.16 -71,-213.84 l -99.4,-273.14 h -55.1 l -91,268.14 c -26.8,79.34 -49.3,152.01 -65.2,218.84 h -1.7 c -1.6,-70.17 -5.8,-164.55 -10.8,-248.92 l -15.1,-241.4 h -69.3 l 39.3,562.99 h 92.7 l 96,-272.3 c 23.4,-69.33 42.6,-131.15 56.8,-189.62 h 2.6 c 14.2,56.79 34.2,118.61 59.3,189.62 l 100.2,272.3 h 92.7 l 35.1,-562.99 h -71 l -14.2,247.24"/>
        <path id="path54" style="fill:#5a8176;fill-opacity:1;fill-rule:nonzero;stroke:none" d="m 7320.05,167.738 c 31.09,-5.488 76.82,-7.328 133.52,-7.328 164.63,0 316.45,60.371 316.45,239.629 0,168.27 -144.5,237.801 -318.27,237.801 h -131.7 z m 0,590.821 h 144.5 c 168.29,0 267.06,87.8 267.06,206.691 0,144.51 -109.74,201.21 -270.71,201.21 -73.18,0 -115.25,-5.48 -140.85,-10.98 z m -159.14,504.851 c 69.51,14.63 179.26,25.61 290.84,25.61 159.14,0 261.57,-27.45 338.4,-89.63 64.02,-47.56 102.44,-120.73 102.44,-217.679 0,-118.902 -78.67,-223.152 -208.54,-270.711 v -3.66 c 117.07,-29.262 254.26,-126.219 254.26,-309.141 0,-106.078 -42.07,-186.558 -104.26,-246.929 -85.97,-78.6489 -225,-115.2309 -426.21,-115.2309 -109.74,0 -193.88,7.3125 -246.93,14.6328 V 1263.41"/>
        <path id="path56" style="fill:#5a8176;fill-opacity:1;fill-rule:nonzero;stroke:none" d="M 8877.17,625.031 H 8397.91 V 180.539 h 534.12 V 47 h -693.26 v 1232.88 h 665.82 V 1146.34 H 8397.91 V 756.719 h 479.26 V 625.031"/>
        <path id="path58" style="fill:#5a8176;fill-opacity:1;fill-rule:nonzero;stroke:none" d="m 9419.16,701.852 h 162.8 c 170.1,0 278.03,93.289 278.03,234.136 0,159.132 -115.23,228.652 -283.53,230.472 -76.82,0 -131.7,-7.32 -157.3,-14.63 z m -159.14,561.558 c 80.48,16.47 195.71,25.61 305.48,25.61 170.11,0 279.85,-31.1 356.68,-100.61 62.19,-54.87 96.92,-139.01 96.92,-234.14 0,-162.79 -102.41,-270.7 -232.28,-314.622 v -5.48 c 95.11,-32.918 151.82,-120.719 181.1,-248.77 C 10008.2,213.461 10037.4,94.5703 10063,47 h -164.59 c -20.14,34.7617 -47.57,140.852 -82.33,294.5 -36.58,170.109 -102.44,234.141 -246.93,239.621 H 9419.16 V 47 h -159.14 v 1216.41"/>
        <path id="path60" style="fill:#5a8176;fill-opacity:1;fill-rule:nonzero;stroke:none" d="m 11316.3,101.879 c -71.4,-25.5977 -212.2,-67.6798 -378.7,-67.6798 -186.5,0 -340.2,47.5625 -460.9,162.7888 -106.1,102.442 -172,267.063 -172,459.133 1.9,367.669 254.3,636.559 667.7,636.559 142.7,0 254.3,-31.11 307.3,-56.71 l -38.4,-129.87 c -65.9,29.26 -148.2,53.04 -272.6,53.04 -299.9,0 -495.7,-186.57 -495.7,-495.699 0,-312.793 188.4,-497.543 475.6,-497.543 104.3,0 175.6,14.641 212.2,32.93 V 566.5 h -250.6 v 128.039 h 406.1 v -592.66"/>
        <path id="path64" style="fill:#5a8176;fill-opacity:1;fill-rule:nonzero;stroke:none" d="m 8777.37,1538.75 -72.54,124.22 c -29.18,47.54 -46.68,78.39 -64.19,110.9 h -1.67 c -15.84,-32.51 -32.51,-62.53 -60.85,-111.73 l -67.54,-123.39 h -83.38 l 171.76,284.32 -165.09,277.63 h 84.21 l 74.21,-131.74 c 20.84,-36.67 36.68,-65.02 51.68,-95.03 h 2.5 c 15.84,33.34 30.02,59.2 50.86,95.03 l 75.88,131.74 h 84.21 l -170.93,-273.47 175.1,-288.48 h -84.22"/>
      </g>
    </g>
  </g>
</svg>